<svg aria-hidden="true" style="position: absolute; width: 0; height: 0; overflow: hidden;" version="1.1" xmlns="http://www.w3.org/2000/svg" xmlns:xlink="http://www.w3.org/1999/xlink">
<defs>
<symbol id="changeBtnSvg" viewBox="0 0 32 32">
<path d="M21.493 7.125c-0.213 0-0.427-0.16-0.48-0.373-0.107-0.267 0.053-0.587 0.32-0.693l3.093-1.013-1.013-3.093c-0.107-0.267 0.053-0.587 0.32-0.693s0.587 0.053 0.693 0.32l1.173 3.573c0 0.213 0 0.373-0.053 0.48s-0.16 0.213-0.32 0.267l-3.573 1.173c-0.053 0.053-0.107 0.053-0.16 0.053z"></path>
<path d="M8 5.952c-0.213 0-0.373-0.107-0.48-0.32-0.107-0.267 0-0.587 0.267-0.693 3.147-1.6 5.707-2.187 8.747-2.187s5.6 0.64 8.747 2.187c0.267 0.107 0.373 0.427 0.267 0.693s-0.427 0.373-0.693 0.267c-3.040-1.493-5.44-2.080-8.32-2.080s-5.28 0.587-8.32 2.080c-0.053 0-0.16 0.053-0.213 0.053zM9.173 31.125c-0.213 0-0.427-0.16-0.48-0.373l-1.173-3.573c-0.053-0.16-0.053-0.32 0-0.427s0.16-0.213 0.32-0.267l3.573-1.173c0.267-0.107 0.587 0.053 0.693 0.32s-0.053 0.587-0.32 0.693l-3.093 1.013 1.013 3.093c0.107 0.267-0.053 0.587-0.32 0.693-0.053-0.053-0.107 0-0.213 0z"></path>
<path d="M16.533 29.632c-3.040 0-5.6-0.64-8.747-2.187-0.267-0.107-0.373-0.427-0.267-0.693s0.427-0.373 0.693-0.267c2.987 1.493 5.387 2.080 8.32 2.080 2.88 0 5.28-0.587 8.32-2.080 0.267-0.107 0.587 0 0.693 0.267s0 0.587-0.267 0.693c-3.147 1.6-5.707 2.187-8.747 2.187zM13.333 22.592h-11.733c-0.587 0-1.067-0.48-1.067-1.067v-11.733c0-0.587 0.48-1.067 1.067-1.067h11.733c0.587 0 1.067 0.48 1.067 1.067v11.733c0 0.587-0.48 1.067-1.067 1.067z"></path>
<path fill="#fd9808" style="fill: var(--color2, #fd9808)" d="M13.333 8.725h-1.6c0.587 0 1.067 0.48 1.067 1.067v11.733c0 0.587-0.48 1.067-1.067 1.067h1.6c0.587 0 1.067-0.48 1.067-1.067v-11.733c0-0.587-0.48-1.067-1.067-1.067z"></path>
<path d="M30.4 22.592h-11.733c-0.587 0-1.067-0.48-1.067-1.067v-11.733c0-0.587 0.48-1.067 1.067-1.067h11.733c0.587 0 1.067 0.48 1.067 1.067v11.733c0 0.587-0.48 1.067-1.067 1.067z"></path>
<path fill="#fd9808" style="fill: var(--color2, #fd9808)" d="M30.4 8.725h-1.6c0.587 0 1.067 0.48 1.067 1.067v11.733c0 0.587-0.48 1.067-1.067 1.067h1.6c0.587 0 1.067-0.48 1.067-1.067v-11.733c0-0.587-0.48-1.067-1.067-1.067z"></path>
<path fill="#fff" style="fill: var(--color3, #fff)" d="M1.067 8.725h1.6c-0.587 0-1.067 0.48-1.067 1.067v11.733c0 0.587 0.48 1.067 1.067 1.067h-1.6c-0.587-0-1.067-0.48-1.067-1.067v-11.733c0-0.587 0.48-1.067 1.067-1.067z"></path>
<path fill="#000" style="fill: var(--color4, #000)" d="M13.333 23.125h-11.733c-0.907 0-1.6-0.693-1.6-1.6v-11.733c0-0.907 0.693-1.6 1.6-1.6h11.733c0.907 0 1.6 0.693 1.6 1.6v11.733c0 0.907-0.693 1.6-1.6 1.6zM1.6 9.258c-0.32 0-0.533 0.213-0.533 0.533v11.733c0 0.32 0.213 0.533 0.533 0.533h11.733c0.32 0 0.533-0.213 0.533-0.533v-11.733c0-0.32-0.213-0.533-0.533-0.533h-11.733z"></path>
<path fill="#000" style="fill: var(--color4, #000)" d="M8 11.925h-5.333c-0.32 0-0.533-0.213-0.533-0.533s0.213-0.533 0.533-0.533h5.333c0.32 0 0.533 0.213 0.533 0.533s-0.213 0.533-0.533 0.533zM10.133 14.058h-5.867c-0.32 0-0.533-0.213-0.533-0.533s0.213-0.533 0.533-0.533h5.867c0.32 0 0.533 0.213 0.533 0.533s-0.213 0.533-0.533 0.533zM8 16.192h-5.333c-0.32 0-0.533-0.213-0.533-0.533s0.213-0.533 0.533-0.533h5.333c0.32 0 0.533 0.213 0.533 0.533s-0.213 0.533-0.533 0.533zM4.8 18.325h-2.133c-0.32 0-0.533-0.213-0.533-0.533s0.213-0.533 0.533-0.533h2.133c0.32 0 0.533 0.213 0.533 0.533s-0.213 0.533-0.533 0.533zM8 20.458h-4.267c-0.32 0-0.533-0.213-0.533-0.533s0.213-0.533 0.533-0.533h4.267c0.32 0 0.533 0.213 0.533 0.533s-0.213 0.533-0.533 0.533zM30.4 23.125h-11.733c-0.907 0-1.6-0.693-1.6-1.6v-11.733c0-0.907 0.693-1.6 1.6-1.6h11.733c0.907 0 1.6 0.693 1.6 1.6v11.733c0 0.907-0.693 1.6-1.6 1.6zM18.667 9.258c-0.32 0-0.533 0.213-0.533 0.533v11.733c0 0.32 0.213 0.533 0.533 0.533h11.733c0.32 0 0.533-0.213 0.533-0.533v-11.733c0-0.32-0.213-0.533-0.533-0.533h-11.733z"></path>
<path fill="#000" style="fill: var(--color4, #000)" d="M25.067 11.925h-5.333c-0.32 0-0.533-0.213-0.533-0.533s0.213-0.533 0.533-0.533h5.333c0.32 0 0.533 0.213 0.533 0.533s-0.213 0.533-0.533 0.533zM27.2 14.058h-5.867c-0.32 0-0.533-0.213-0.533-0.533s0.213-0.533 0.533-0.533h5.867c0.32 0 0.533 0.213 0.533 0.533s-0.213 0.533-0.533 0.533zM25.067 16.192h-5.333c-0.32 0-0.533-0.213-0.533-0.533s0.213-0.533 0.533-0.533h5.333c0.32 0 0.533 0.213 0.533 0.533s-0.213 0.533-0.533 0.533zM21.867 18.325h-2.133c-0.32 0-0.533-0.213-0.533-0.533s0.213-0.533 0.533-0.533h2.133c0.32 0 0.533 0.213 0.533 0.533s-0.213 0.533-0.533 0.533zM25.067 20.458h-4.267c-0.32 0-0.533-0.213-0.533-0.533s0.213-0.533 0.533-0.533h4.267c0.32 0 0.533 0.213 0.533 0.533s-0.213 0.533-0.533 0.533zM20.96 6.698c-0.213 0-0.427-0.16-0.48-0.373-0.107-0.267 0.053-0.533 0.32-0.64l3.093-1.013-1.013-3.093c-0.107-0.267 0.053-0.587 0.32-0.693 0.267-0.053 0.533 0.107 0.64 0.373l1.173 3.573c0.053 0.107 0.053 0.267 0 0.373s-0.16 0.213-0.32 0.267l-3.573 1.173c-0.053 0.053-0.107 0.053-0.16 0.053z"></path>
<path fill="#000" style="fill: var(--color4, #000)" d="M7.467 5.525c-0.213 0-0.373-0.107-0.48-0.32-0.107-0.267 0-0.587 0.267-0.693 3.147-1.547 5.707-2.187 8.747-2.187s5.6 0.64 8.747 2.187c0.267 0.107 0.373 0.427 0.267 0.693s-0.427 0.373-0.693 0.267c-3.040-1.493-5.44-2.080-8.32-2.080s-5.28 0.587-8.32 2.080c-0.053 0.053-0.16 0.053-0.213 0.053zM8.64 30.432c-0.213 0-0.427-0.16-0.48-0.373l-1.173-3.573c-0.053-0.16-0.053-0.267 0.053-0.427 0.053-0.107 0.16-0.213 0.32-0.267l3.573-1.173c0.267-0.107 0.587 0.053 0.693 0.32s-0.053 0.587-0.32 0.693l-3.093 1.013 1.013 3.093c0.107 0.267-0.053 0.587-0.32 0.693l-0.267 0z"></path>
<path fill="#000" style="fill: var(--color4, #000)" d="M16 28.992c-3.040 0-5.6-0.64-8.747-2.187-0.267-0.107-0.373-0.427-0.267-0.693s0.427-0.373 0.693-0.267c3.040 1.493 5.44 2.080 8.32 2.080s5.28-0.587 8.32-2.080c0.267-0.107 0.587 0 0.693 0.267s0 0.587-0.267 0.693c-3.147 1.547-5.707 2.187-8.747 2.187z"></path>
</symbol>
</defs>
</svg>
